<?xml version="1.0" encoding="UTF-8"?>
<svg id="Layer_1" data-name="Layer 1" xmlns="http://www.w3.org/2000/svg" viewBox="0 0 668.89 130.97">
  <defs>
    <style>
      .cls-1 {
        fill: #000;
        stroke-width: 0px;
      }
    </style>
  </defs>
  <g>
    <rect class="cls-1" y="61.15" width="52.25" height="52.25"/>
    <rect class="cls-1" x="61.13" width="52.25" height="52.25"/>
    <polygon class="cls-1" points="0 0 10.83 41.41 52.25 52.25 41.77 10.48 0 0"/>
    <polygon class="cls-1" points="61.13 61.15 71.96 102.57 113.38 113.4 102.9 71.63 61.13 61.15"/>
  </g>
  <g>
    <path class="cls-1" d="M163.12,27.28c2.59-1.97,6.22-2.96,10.9-2.96s8.6,1.18,11.28,3.54c2.68,2.36,4.01,5.66,4.01,9.91h19.11c0-5.56-1.43-10.53-4.3-14.91-2.87-4.37-6.89-7.76-12.07-10.16-5.18-2.4-11.09-3.6-17.71-3.6s-12.52,1.11-17.81,3.31c-5.29,2.21-9.34,5.28-12.17,9.21-2.83,3.93-4.24,8.4-4.24,13.41,0,9.64,5.27,17.31,15.8,23,3.87,2.08,9.11,4.2,15.74,6.34,6.63,2.14,11.21,4.18,13.76,6.12,2.55,1.93,3.82,4.7,3.82,8.31,0,3.31-1.27,5.89-3.82,7.74-2.55,1.85-6.1,2.77-10.64,2.77-12.23,0-18.35-5.12-18.35-15.35h-19.18c0,5.99,1.54,11.26,4.62,15.8,3.08,4.54,7.55,8.12,13.41,10.73,5.86,2.61,12.36,3.92,19.5,3.92,10.28,0,18.45-2.28,24.53-6.85,6.07-4.57,9.11-10.86,9.11-18.89,0-7.22-2.48-13.25-7.45-18.09-4.97-4.84-12.89-8.9-23.76-12.17-5.9-1.78-10.38-3.7-13.41-5.73-3.04-2.04-4.56-4.57-4.56-7.58,0-3.23,1.3-5.83,3.89-7.81Z"/>
    <path class="cls-1" d="M304.9,42.41l-.51-8.22h-17.39v68.94h18.41v-45.11c2.17-4.71,6.73-7.07,13.7-7.07,1.91,0,4.37.17,6.88.51v-17.71c-1.78-.55-3.7-.83-5.73-.83-6.54,0-11.66,3.16-15.35,9.49Z"/>
    <polygon class="cls-1" points="334.76 103.13 353.24 103.13 353.24 34.2 334.76 43.1 334.76 103.13"/>
    <polygon class="cls-1" points="334.76 34.07 353.24 25.47 353.24 8.38 334.76 17.28 334.76 34.07"/>
    <path class="cls-1" d="M399.86,32.92c-8.28,0-14.89,3.08-19.81,9.24l-.57-7.96h-17.33v68.94h18.41v-48.73c2.59-4.43,6.48-6.64,11.66-6.64,3.95,0,6.77.88,8.47,2.65,1.7,1.77,2.55,4.61,2.55,8.53v44.19h18.41v-44.54c-.09-8.54-1.91-14.95-5.48-19.24-3.57-4.29-9.01-6.43-16.31-6.43Z"/>
    <path class="cls-1" d="M448.84,13.79l-18.41,9.09v60.7c.25,13.04,6.84,19.56,19.75,19.56h11.15v-15.16h-5.42c-2.76,0-4.63-.55-5.61-1.66-.98-1.1-1.47-2.93-1.47-5.48v-32.04h12.49v-13.49h-12.49V13.79Z"/>
    <path class="cls-1" d="M649.14,34.2l-12.74,42.88-12.81-42.88h-19.81l24.15,69.13-2.17,5.67c-.98,2.46-2.32,4.23-4.05,5.29-1.72,1.06-4.32,1.59-7.8,1.59l-2.87-.06-7.26,15.16h15.48c9.47,0,16.27-4.5,20.39-13.51l1.53-3.63,27.72-79.64h-19.75Z"/>
    <path class="cls-1" d="M594.92,39.32c-4.99-4.27-11.73-6.4-20.23-6.4-5.61,0-10.66.97-15.16,2.9-4.5,1.93-7.99,4.6-10.45,8-2.46,3.4-3.69,7.09-3.69,11.09h18.41c0-2.59.88-4.63,2.64-6.12,1.76-1.49,4.19-2.23,7.29-2.23,3.53,0,6.11.96,7.74,2.87,1.63,1.91,2.45,4.46,2.45,7.65v3.95h-8.47c-10.24.04-18.06,2.02-23.48,5.93-5.42,3.91-8.12,9.52-8.12,16.82,0,5.95,2.22,10.87,6.66,14.78,4.44,3.91,10.03,5.86,16.79,5.86h35.1v-47.08c0-7.73-2.5-13.73-7.49-18ZM583.92,90.33h-12.61c-2.8,0-5.01-.74-6.63-2.23-1.61-1.49-2.42-3.38-2.42-5.67l.06-1.08c.59-6.37,5.5-9.56,14.72-9.56h6.88v18.54Z"/>
    <path class="cls-1" d="M522.28,64.33c5.56-2.51,9.72-5.87,12.46-10.1,2.74-4.23,4.11-9.5,4.11-15.83,0-8.92-2.97-15.82-8.92-20.71-5.95-4.88-14.4-7.33-25.36-7.33h-34.28v15.48h34.28c5.14,0,8.95,1.25,11.44,3.76,2.49,2.51,3.73,5.95,3.73,10.32s-1.32,7.66-3.95,10.1c-2.63,2.44-6.35,3.66-11.15,3.66h-15.42v-18.39h-18.93v67.83h18.93v-33.96h15.23l17.39,33.96h20.52v-.89l-20.07-37.91Z"/>
    <path class="cls-1" d="M271.9,43.23c-4.72-6.02-11.32-9.03-19.81-9.03h-35.17v15.69h30.33c4.33,0,7.64,1.67,9.91,5.02,2.27,3.35,3.41,6.62,3.41,12.79,0,13.83-4.4,19.3-13.19,19.3h-13.52v-27.67h-16.93v63.75l16.93,7.81v-28.22h18.37c8.2,0,14.71-3.06,19.53-9.18,4.82-6.12,7.23-14.27,7.23-24.44v-.91c0-10.58-2.36-18.88-7.07-24.9Z"/>
  </g>
</svg>